<?xml version="1.0" standalone="no"?>
<!DOCTYPE svg PUBLIC "-//W3C//DTD SVG 20010904//EN"
 "http://www.w3.org/TR/2001/REC-SVG-20010904/DTD/svg10.dtd">
<svg version="1.0" xmlns="http://www.w3.org/2000/svg"
 width="512.000000pt" height="512.000000pt" viewBox="0 0 512.000000 512.000000"
 preserveAspectRatio="xMidYMid meet">
<metadata>
Created by potrace 1.14, written by Peter Selinger 2001-2017
</metadata>
<g transform="translate(0.000000,512.000000) scale(0.100000,-0.100000)"
fill="#000000" stroke="none">
<path d="M975 5113 c-32 -8 -84 -51 -102 -86 -16 -29 -18 -93 -19 -807 -1
-426 -3 -782 -3 -790 -1 -14 -44 -16 -373 -15 -205 0 -389 -3 -408 -7 -18 -4
-42 -17 -52 -30 -17 -22 -17 -109 -18 -1675 0 -1521 1 -1653 17 -1668 9 -9 27
-21 40 -26 15 -5 851 -9 2081 -9 l2057 0 40 23 c56 32 74 63 139 248 32 90 78
220 103 289 25 69 64 179 88 245 23 66 79 224 124 350 46 127 98 275 118 330
19 55 42 118 50 140 8 22 37 103 65 180 27 77 82 231 122 341 82 229 88 272
46 336 -46 70 -61 73 -372 76 -153 2 -278 6 -279 10 0 4 -1 169 -2 368 l-2
360 -25 37 c-43 62 -86 79 -206 80 -85 1 -104 4 -105 17 -1 8 -2 170 -4 360
-2 351 -4 371 -42 416 -43 52 -68 58 -217 60 -78 1 -147 3 -153 3 -10 1 -13
36 -13 141 0 150 -8 186 -51 231 -41 43 -80 52 -233 53 l-141 1 -1 142 c-1
128 -4 147 -25 190 -15 30 -37 55 -59 68 -34 20 -52 20 -1100 21 -586 1 -1074
0 -1085 -3z"/>
</g>
</svg>
